
<svg width="20" height="17" viewBox="0 0 20 17" fill="none" xmlns="http://www.w3.org/2000/svg">
<path fill-rule="evenodd" clip-rule="evenodd" d="M5.0601 3.48801H3.08718C2.52433 3.48801 1.98441 3.71128 1.58626 4.10942C1.18811 4.50757 0.964844 5.0475 0.964844 5.61034V14.0997C0.964844 14.6625 1.18811 15.2024 1.58626 15.6006C1.98441 15.9987 2.52433 16.222 3.08718 16.222C6.34029 16.222 13.417 16.222 16.6701 16.222C17.2329 16.222 17.7729 15.9987 18.171 15.6006C18.5692 15.2024 18.7924 14.6625 18.7924 14.0997V5.61034C18.7924 5.0475 18.5692 4.50757 18.171 4.10942C17.7729 3.71128 17.2329 3.48801 16.6701 3.48801H15.0784L13.8211 1.81561C13.6513 1.29776 13.1649 0.941208 12.6114 0.941208C11.3125 0.941208 8.44479 0.941208 7.14592 0.941208C6.57969 0.941208 6.08391 1.31474 5.92431 1.85296C5.92516 1.85126 5.0601 3.48801 5.0601 3.48801ZM5.31562 4.33694C5.47268 4.33694 5.617 4.25035 5.69085 4.11112L6.69769 2.20697C6.71297 2.17725 6.7257 2.14499 6.73419 2.11189C6.78088 1.92257 6.95067 1.79014 7.14592 1.79014H12.6114C12.8066 1.79014 12.9764 1.92257 13.0231 2.11189C13.0367 2.16707 13.0621 2.218 13.0961 2.26385L14.5265 4.16715C14.6072 4.27412 14.7328 4.33694 14.8661 4.33694H16.6701C17.008 4.33694 17.3314 4.47107 17.5708 4.70962C17.8094 4.94902 17.9435 5.27246 17.9435 5.61034V14.0997C17.9435 14.4375 17.8094 14.761 17.5708 15.0004C17.3314 15.2389 17.008 15.3731 16.6701 15.3731H3.08718C2.7493 15.3731 2.42586 15.2389 2.18646 15.0004C1.94791 14.761 1.81378 14.4375 1.81378 14.0997V5.61034C1.81378 5.27246 1.94791 4.94902 2.18646 4.70962C2.42586 4.47107 2.7493 4.33694 3.08718 4.33694H5.31562Z" fill="#273C89" stroke="#273C89" stroke-width="0.5"/>
<path fill-rule="evenodd" clip-rule="evenodd" d="M9.87879 5.60956C7.77004 5.60956 6.05859 7.32101 6.05859 9.42976C6.05859 11.5385 7.77004 13.25 9.87879 13.25C11.9875 13.25 13.699 11.5385 13.699 9.42976C13.699 7.32101 11.9875 5.60956 9.87879 5.60956ZM9.87879 6.45849C11.5189 6.45849 12.8501 7.78962 12.8501 9.42976C12.8501 11.0699 11.5189 12.401 9.87879 12.401C8.23865 12.401 6.90753 11.0699 6.90753 9.42976C6.90753 7.78962 8.23865 6.45849 9.87879 6.45849Z" fill="#273C89" stroke="#273C89" stroke-width="0.5"/>
</svg>
