<svg width="40" height="40" viewBox="0 0 40 40" fill="none" xmlns="http://www.w3.org/2000/svg">
<path d="M38.213 27.5547L32.3461 21.6824C31.4435 20.779 29.187 20.779 28.2844 21.6824L24.674 25.2961L24.2227 24.8444L12.9401 13.5515L16.5505 10.3895C17.0018 9.93776 17.4531 9.03433 17.4531 8.58262C17.4531 7.67918 17.0018 7.22747 16.5505 6.77575L10.6836 0.903428C10.2323 0.451712 9.32968 0 8.87837 0C8.42707 0 7.52447 0.451712 7.07316 0.903428L1.20623 6.77575C0.754926 7.22747 -0.598982 8.58261 0.303623 12.1963C1.20623 16.7135 4.81665 22.1341 11.1349 28.4581C20.1609 37.4925 26.0279 39.2993 29.187 39.2993C31.4435 39.2993 32.3461 38.3959 32.7974 37.9442L38.6643 32.0719C39.1157 31.6202 39.567 30.7167 39.567 30.265C39.1157 28.9099 38.6643 28.0064 38.213 27.5547ZM35.5052 29.8133L30.0896 35.2339C30.0896 35.2339 29.187 35.6856 28.2844 35.6856C26.0279 35.6856 21.0635 34.3305 12.4888 25.7478C0.303623 13.5515 2.56014 9.03433 2.56014 8.58262L8.87837 2.71029L14.7453 8.58262L9.78098 13.5515C9.32968 14.0032 9.32968 14.9067 9.78098 15.8101L23.3201 29.3616C23.7714 29.8133 24.674 29.8133 25.5766 29.3616L30.0896 23.941L35.5052 29.8133Z" fill="#ECC36C"/>
</svg>
