<svg width="67" height="55" viewBox="0 0 67 55" fill="none" xmlns="http://www.w3.org/2000/svg">
    <path d="M45.2104 33.7845C45.2104 33.7845 52.8078 1.83611 0 0C0 0 6.72552 12.2408 11.0847 24.4815C14.4474 33.9069 25.4075 42.5978 39.4813 36.3551C39.4813 36.3551 27.8985 33.9069 16.1911 14.5665C16.1911 14.5665 21.7957 21.1765 28.1476 26.44C30.8876 28.6434 41.1004 36.5999 45.2104 33.7845Z" fill="#273C89"/>
    <path d="M9.63271 54.2625L8.15573 53.2776C8.52498 52.7852 16.033 41.2131 38.8031 38.7509C60.4654 36.4119 65.0195 30.7489 65.0195 30.6258L66.4964 31.7338C66.2503 31.98 61.6963 38.1354 39.0492 40.5975C17.1407 42.9366 9.75579 54.2625 9.63271 54.2625Z" fill="#ECC36C"/>
    <path d="M56.4575 34.3758C53.5079 34.7443 50.5583 34.6214 47.6088 34.2529C46.134 34.0072 44.6592 33.8844 43.3073 33.3931C42.5699 33.1474 41.8325 33.0245 41.0951 32.7789C40.3577 32.5332 39.7432 32.2875 39.0058 32.0418C38.2684 31.7962 37.6539 31.5505 36.9165 31.3048L36.5478 31.182C32.4921 29.3394 28.0677 26.2685 26.5929 25.0401C24.7494 23.4432 22.906 21.8463 21.1854 20.1266C20.3251 19.2667 19.4648 18.4068 18.6045 17.4241C17.7442 16.5643 17.0068 15.5815 16.1465 14.7217C17.4984 16.6871 19.0961 18.6525 20.8167 20.3722C22.5373 22.2148 24.2579 23.8117 26.1013 25.4086C28.0677 27.0055 31.8776 29.8308 33.9669 31.0591C34.0898 31.0591 34.0898 31.182 34.2127 31.182L36.1791 32.2875C36.7936 32.656 37.531 33.0245 38.2684 33.2702C41.0951 34.6214 44.1676 35.3585 47.2401 35.8498C50.3125 36.2183 53.5079 36.2183 56.5804 35.4813C59.6529 34.8671 62.6025 33.7616 65.0605 31.919C62.3567 33.3931 59.4071 34.1301 56.4575 34.3758Z" fill="#ECC36C"/>
</svg>