<svg width="19" height="27" viewBox="0 0 19 27" fill="none" xmlns="http://www.w3.org/2000/svg">
<path d="M10.6735 26.9997C10.5996 26.9973 10.5278 26.9743 10.4664 26.9332C10.405 26.8921 10.3564 26.8346 10.3261 26.7673C9.81319 25.5116 9.50665 24.1814 9.41833 22.8282C9.43837 22.7472 9.48367 22.6747 9.5477 22.621C9.61172 22.5673 9.69116 22.5354 9.77458 22.5297C9.85799 22.524 9.94106 22.5448 10.0118 22.5893C10.0826 22.6338 10.1373 22.6995 10.1683 22.777C10.2497 24.053 10.5376 25.3074 11.0208 26.4916C11.0393 26.537 11.0486 26.5857 11.0481 26.6348C11.0476 26.6839 11.0373 26.7324 11.0178 26.7775C10.9983 26.8226 10.9701 26.8634 10.9347 26.8975C10.8993 26.9315 10.8574 26.9583 10.8116 26.9761C10.7678 26.9937 10.7207 27.0017 10.6735 26.9997Z" fill="#ECC36C"/>
<path d="M7.52369 17.5538L3.41097 15.4858C3.39323 15.4799 3.37425 15.4788 3.35593 15.4825C3.33761 15.4862 3.32059 15.4947 3.3066 15.5071C3.2926 15.5195 3.28211 15.5353 3.27618 15.553C3.27026 15.5707 3.2691 15.5896 3.27283 15.6079L4.57138 20.2206C4.94239 21.9498 7.29872 22.8125 8.61305 21.6268C9.92739 20.4412 9.17352 18.3574 7.52369 17.5538Z" fill="#ECC36C"/>
<path d="M10.4286 10.1799C11.218 11.7556 13.7401 11.7556 14.719 10.2666L17.0871 6.6072C17.0975 6.59186 17.1037 6.57408 17.1051 6.55563C17.1065 6.53718 17.103 6.51868 17.095 6.50197C17.087 6.48526 17.0748 6.47092 17.0596 6.46036C17.0444 6.4498 17.0267 6.44339 17.0082 6.44176L12.931 6.70567C11.0759 6.81597 9.63924 8.6043 10.4286 10.1799Z" fill="#ECC36C"/>
<path d="M10.0497 6.06356C11.5851 6.94591 13.602 5.66965 13.602 3.90101V0.103756C13.6015 0.0855008 13.5964 0.0676687 13.587 0.0519757C13.5777 0.0362828 13.5644 0.0232574 13.5486 0.0141552C13.5327 0.00505292 13.5148 0.000179708 13.4965 4.87553e-06C13.4782 -0.000169957 13.4601 0.00435995 13.4441 0.0131574L10.1484 1.90785C8.61304 2.79414 8.51437 5.17727 10.0497 6.06356Z" fill="#ECC36C"/>
<path d="M16.1755 15.608L13.31 16.9315L15.2242 19.1571L16.3057 15.734C16.3109 15.7162 16.3112 15.6972 16.3064 15.6792C16.3016 15.6612 16.292 15.6448 16.2786 15.6319C16.2652 15.6189 16.2485 15.6098 16.2304 15.6056C16.2122 15.6014 16.1932 15.6022 16.1755 15.608Z" fill="#ECC36C"/>
<path d="M16.4359 11.0583L12.2364 11.9367C11.8246 12.0219 11.4343 12.1894 11.0891 12.429C10.7438 12.6687 10.4507 12.9755 10.2274 13.3312L12.9429 16.4824C13.2808 16.3868 13.5954 16.2227 13.8671 16.0004C14.1387 15.7782 14.3615 15.5024 14.5217 15.1904L16.5464 11.1844C16.5503 11.1684 16.5503 11.1518 16.5464 11.1358C16.5425 11.1199 16.5348 11.1051 16.524 11.0927C16.5131 11.0804 16.4995 11.0708 16.4842 11.0648C16.4688 11.0588 16.4523 11.0566 16.4359 11.0583Z" fill="#ECC36C"/>
<path d="M4.33448 6.48905L7.70912 10.4281C8.00814 10.4248 8.30314 10.3589 8.57508 10.2347C8.84701 10.1106 9.08984 9.93087 9.2879 9.70726C10.4404 8.36404 9.48525 6.2724 7.70912 5.72487L3.80559 4.46831C3.78755 4.46539 3.76907 4.46714 3.75191 4.47341C3.73476 4.47967 3.7195 4.49023 3.70761 4.50407C3.69572 4.51792 3.6876 4.53458 3.68402 4.55246C3.68044 4.57034 3.68153 4.58883 3.68718 4.60617L4.33448 6.48905Z" fill="#ECC36C"/>
<path d="M18.8475 24.3251L4.87921 8.11584V8.13948L0.98752 3.60561C0.890691 3.49278 0.752917 3.42297 0.604508 3.41152C0.456099 3.40007 0.30921 3.44792 0.196156 3.54456C0.0831022 3.64119 0.013144 3.77869 0.00167091 3.9268C-0.00980214 4.07492 0.0381503 4.22151 0.134979 4.33434L6.10277 11.2592L3.06362 10.302C3.04558 10.2991 3.0271 10.3009 3.00994 10.3071C2.99279 10.3134 2.97753 10.3239 2.96564 10.3378C2.95375 10.3516 2.94563 10.3683 2.94205 10.3862C2.93847 10.4041 2.93956 10.4226 2.94521 10.4399L4.57135 14.6232C5.17129 16.2894 7.61445 16.9039 8.75906 15.5528C8.93922 15.3335 9.07343 15.0803 9.15376 14.8083L11.6561 17.7114C10.2076 18.5662 9.58003 20.4333 10.7681 21.5756C11.8456 22.6116 13.7085 22.2138 14.5177 21.032L18.0147 25.0578C18.0629 25.1134 18.1216 25.159 18.1874 25.1919C18.2533 25.2249 18.325 25.2446 18.3985 25.2499C18.472 25.2552 18.5458 25.246 18.6157 25.2228C18.6856 25.1997 18.7503 25.163 18.806 25.1149C18.8617 25.0668 18.9074 25.0082 18.9405 24.9424C18.9735 24.8767 18.9932 24.8051 18.9985 24.7318C19.0039 24.6585 18.9946 24.5848 18.9714 24.515C18.9482 24.4452 18.9115 24.3807 18.8633 24.3251H18.8475Z" fill="#ECC36C"/>
</svg>
