<svg width="24" height="27" viewBox="0 0 24 27" fill="none" xmlns="http://www.w3.org/2000/svg">
<path d="M16.4023 23.1349C17.7337 20.1933 16.3322 16.7728 13.354 15.5073C10.3407 14.2075 6.83694 15.5757 5.54054 18.4831C4.41933 21.0142 5.26023 23.9216 7.46762 25.495L7.11724 25.837L8.02823 25.8713L7.99319 26.3501L8.58883 26.1107L8.79906 26.6922L9.18448 26.3843L9.71004 27L9.8502 26.4869C12.5131 27.0342 15.2811 25.666 16.4023 23.1349Z" fill="#ECC36C"/>
<path d="M4.63537 18.361C5.37744 16.7563 6.75558 15.6296 8.34574 15.1516C8.13372 15.0492 7.9217 14.9126 7.70968 14.8102C4.91807 13.6493 1.70241 14.8443 0.465617 17.5416C-0.59449 19.8633 0.218259 22.5265 2.2678 23.9605L1.91443 24.2677L2.76252 24.3019L2.72718 24.7457L3.29257 24.575L3.46925 25.0872L3.82262 24.7799L4.31734 25.3603L4.45869 24.8823C4.98874 24.9847 5.55413 24.9847 6.08418 24.9506C4.24666 23.3459 3.57526 20.7169 4.63537 18.361Z" fill="#ECC36C"/>
<path d="M17.8888 9.36982C17.8888 9.36982 20.07 0.509229 4.90879 0C4.90879 0 6.8397 3.39486 8.09121 6.78973C9.05666 9.40377 12.2033 11.8141 16.2439 10.0827C16.2439 10.0827 12.9185 9.40377 9.55727 4.03989C9.55727 4.03989 11.1664 5.87311 12.99 7.3329C13.7767 7.94398 16.7088 10.1506 17.8888 9.36982Z" fill="#ECC36C"/>
<path d="M7.67436 15.0492L7.25031 14.7761C7.35632 14.6395 9.51188 11.4301 16.0492 10.7472C22.2685 10.0985 23.576 8.52794 23.576 8.4938L24 8.80108C23.9293 8.86937 22.6219 10.5765 16.1199 11.2594C9.82991 11.9081 7.70969 15.0492 7.67436 15.0492Z" fill="#ECC36C"/>
<path d="M11.9148 15.2541L11.3847 15.2199C11.5261 12.7616 15.7665 10.8838 15.9432 10.7814L16.1552 11.2252C16.1552 11.2594 12.0561 13.0689 11.9148 15.2541Z" fill="#ECC36C"/>
<path d="M21.1178 9.53381C20.271 9.63601 19.4242 9.60194 18.5773 9.49974C18.1539 9.4316 17.7305 9.39754 17.3424 9.26126C17.1307 9.19313 16.9189 9.15906 16.7072 9.09092C16.4955 9.02279 16.3191 8.95465 16.1074 8.88651C15.8957 8.81838 15.7193 8.75024 15.5076 8.68211L15.4017 8.64804C14.2373 8.13702 12.9671 7.28532 12.5437 6.94464C12.0144 6.50175 11.4851 6.05887 10.9911 5.58192C10.7441 5.34344 10.4972 5.10497 10.2502 4.83242C10.0032 4.59395 9.79146 4.3214 9.54447 4.08293C9.9326 4.62801 10.3913 5.1731 10.8853 5.65005C11.3793 6.16107 11.8733 6.60396 12.4025 7.04684C12.9671 7.48973 14.0609 8.27329 14.6607 8.61397C14.696 8.61397 14.696 8.64804 14.7313 8.64804L15.2959 8.95465C15.4723 9.05686 15.684 9.15906 15.8957 9.22719C16.7072 9.60194 17.5894 9.80635 18.4715 9.94262C19.3536 10.0448 20.271 10.0448 21.1531 9.84042C22.0352 9.67008 22.882 9.36347 23.5877 8.85245C22.8115 9.26126 21.9646 9.46567 21.1178 9.53381Z" fill="#ECC36C"/>
</svg>
