<svg xmlns="http://www.w3.org/2000/svg" width="58" height="58" viewBox="0 0 58 58" fill="none"><path d="M11.6 49.2998H15.66V53.3598C15.66 54.5904 16.1489 55.7706 17.019 56.6408C17.8892 57.5109 19.0694 57.9998 20.3 57.9998C21.5306 57.9998 22.7108 57.5109 23.581 56.6408C24.4511 55.7706 24.94 54.5904 24.94 53.3598V49.2998H33.06V53.3598C33.06 54.5904 33.5489 55.7706 34.419 56.6408C35.2892 57.5109 36.4694 57.9998 37.7 57.9998C38.9306 57.9998 40.1108 57.5109 40.981 56.6408C41.8511 55.7706 42.34 54.5904 42.34 53.3598V49.2998H46.4V23.7798H11.6V49.2998Z" fill="white"></path><path d="M47.1134 0.31321C46.7617 0.106943 46.3611 -0.00121441 45.9534 1.02862e-05C45.5465 0.000427587 45.147 0.107824 44.7947 0.311426C44.4425 0.515028 44.15 0.807675 43.9466 1.16001L40.4666 7.20941C37.2951 4.43564 33.2249 2.90685 29.0116 2.90685C24.7983 2.90685 20.7281 4.43564 17.5566 7.20941L14.0534 1.16001C13.85 0.807675 13.5575 0.515028 13.2052 0.311426C12.853 0.107824 12.4534 0.000427587 12.0466 1.02862e-05C11.6389 -0.00121441 11.2383 0.106943 10.8866 0.31321C10.3538 0.620281 9.96469 1.12633 9.80481 1.72014C9.64494 2.31395 9.72737 2.94694 10.034 3.48001L14.3434 10.9388C12.5463 13.7298 11.5937 16.9805 11.6 20.3H46.4C46.4063 16.9805 45.4536 13.7298 43.6566 10.9388L47.966 3.48001C48.2726 2.94694 48.355 2.31395 48.1951 1.72014C48.0353 1.12633 47.6462 0.620281 47.1134 0.31321ZM22.33 15.66C21.9858 15.66 21.6494 15.558 21.3633 15.3668C21.0771 15.1756 20.8541 14.9038 20.7224 14.5859C20.5907 14.2679 20.5563 13.9181 20.6234 13.5806C20.6906 13.243 20.8563 12.933 21.0996 12.6896C21.343 12.4463 21.653 12.2806 21.9905 12.2134C22.328 12.1463 22.6779 12.1808 22.9958 12.3125C23.3138 12.4442 23.5855 12.6672 23.7767 12.9533C23.9679 13.2395 24.07 13.5759 24.07 13.92C24.07 14.3815 23.8867 14.8241 23.5603 15.1504C23.234 15.4767 22.7915 15.66 22.33 15.66ZM35.67 15.66C35.3258 15.66 34.9894 15.558 34.7033 15.3668C34.4171 15.1756 34.1941 14.9038 34.0624 14.5859C33.9307 14.2679 33.8963 13.9181 33.9634 13.5806C34.0306 13.243 34.1963 12.933 34.4396 12.6896C34.683 12.4463 34.993 12.2806 35.3305 12.2134C35.668 12.1463 36.0179 12.1808 36.3358 12.3125C36.6538 12.4442 36.9255 12.6672 37.1167 12.9533C37.3079 13.2395 37.41 13.5759 37.41 13.92C37.41 14.3815 37.2267 14.8241 36.9003 15.1504C36.574 15.4767 36.1315 15.66 35.67 15.66Z" fill="white"></path><path d="M54.52 23.7798C53.5971 23.7798 52.7119 24.1464 52.0593 24.7991C51.4067 25.4517 51.04 26.3368 51.04 27.2598V38.8598C51.04 39.7827 51.4067 40.6679 52.0593 41.3205C52.7119 41.9731 53.5971 42.3398 54.52 42.3398C55.443 42.3398 56.3281 41.9731 56.9808 41.3205C57.6334 40.6679 58 39.7827 58 38.8598V27.2598C58 26.3368 57.6334 25.4517 56.9808 24.7991C56.3281 24.1464 55.443 23.7798 54.52 23.7798Z" fill="white"></path><path d="M3.48 23.7798C2.55705 23.7798 1.6719 24.1464 1.01927 24.7991C0.366642 25.4517 0 26.3368 0 27.2598V38.8598C0 39.7827 0.366642 40.6679 1.01927 41.3205C1.6719 41.9731 2.55705 42.3398 3.48 42.3398C4.40295 42.3398 5.28811 41.9731 5.94073 41.3205C6.59336 40.6679 6.96 39.7827 6.96 38.8598V27.2598C6.96 26.3368 6.59336 25.4517 5.94073 24.7991C5.28811 24.1464 4.40295 23.7798 3.48 23.7798Z" fill="white"></path></svg>