<svg id="Layer_1" data-name="Layer 1" xmlns="http://www.w3.org/2000/svg" viewBox="0 0 382.39 382.39"><defs><style>.cls-1{fill:#3e56ad;}.cls-2{fill:#ecc36c;}</style></defs><path class="cls-1" d="M265,329.6c18.19-40.17-1-86.88-41.63-104.16-41.15-17.75-89,.93-106.7,40.64A78.37,78.37,0,0,0,143,361.84l-4.78,4.67,12.44.46-.48,6.54,8.14-3.27,2.87,7.95L166.4,374l7.18,8.41,1.91-7C211.86,382.86,249.66,364.17,265,329.6Z"/><path class="cls-1" d="M104.27,264.41A81.47,81.47,0,0,1,155,220.58c-2.9-1.4-5.79-3.26-8.69-4.66-38.12-15.86-82,.46-98.93,37.3C32.85,284.93,44,321.3,71.94,340.88l-4.82,4.2,11.58.46-.49,6.06,7.73-2.33,2.41,7,4.83-4.2L99.93,360l1.93-6.53a88.43,88.43,0,0,0,22.2.93A76.94,76.94,0,0,1,104.27,264.41Z"/><path class="cls-1" d="M285.27,141.62s29.79-121-177.26-128c0,0,26.37,46.36,43.46,92.72,13.19,35.7,56.16,68.62,111.34,45,0,0-45.42-9.27-91.32-82.52,0,0,22,25,46.88,45C229.11,122.15,269.16,152.28,285.27,141.62Z"/><path class="cls-1" d="M145.78,219.18,140,215.45c1.44-1.86,30.88-45.7,120.16-55,84.94-8.86,102.79-30.31,102.79-30.78l5.79,4.2c-1,.93-18.82,24.25-107.61,33.57C175.22,176.28,146.26,219.18,145.78,219.18Z"/><path class="cls-1" d="M203.69,222l-7.24-.47c1.93-33.57,59.84-59.22,62.25-60.61l2.9,6.06C261.6,167.42,205.62,192.14,203.69,222Z"/><path class="cls-1" d="M329.37,143.86a144.34,144.34,0,0,1-34.69-.47c-5.79-.93-11.57-1.39-16.87-3.25-2.89-.93-5.78-1.4-8.67-2.33S263.84,136,261,135s-5.31-1.86-8.2-2.79l-1.44-.47a211.3,211.3,0,0,1-39-23.26c-7.23-6-14.46-12.1-21.21-18.61-3.37-3.26-6.74-6.52-10.12-10.24-3.37-3.25-6.26-7-9.63-10.23a155.86,155.86,0,0,0,18.31,21.4,258.44,258.44,0,0,0,20.72,19.07c7.71,6,22.65,16.75,30.84,21.41.48,0,.48.46,1,.46l7.71,4.19a43.79,43.79,0,0,0,8.19,3.72c11.09,5.12,23.13,7.91,35.18,9.77,12,1.4,24.58,1.4,36.62-1.39,12-2.33,23.62-6.52,33.25-13.5A86.81,86.81,0,0,1,329.37,143.86Z"/><path class="cls-2" d="M237.66,316c18.18-40.17-1-86.89-41.63-104.17-41.15-17.75-89,.93-106.71,40.64a78.37,78.37,0,0,0,26.32,95.76l-4.78,4.67,12.44.47-.48,6.54,8.13-3.27,2.87,7.94,5.27-4.21,7.17,8.41,1.92-7C184.54,369.2,222.35,350.52,237.66,316Z"/><path class="cls-2" d="M77,250.75a81.51,81.51,0,0,1,50.67-43.83c-2.89-1.4-5.79-3.26-8.68-4.66-38.13-15.85-82,.47-98.93,37.3-14.48,31.71-3.38,68.08,24.61,87.66l-4.83,4.2,11.58.47L50.9,338l7.72-2.33,2.42,7,4.82-4.2,6.76,7.93,1.93-6.53a88.43,88.43,0,0,0,22.2.93A76.91,76.91,0,0,1,77,250.75Z"/><path class="cls-2" d="M258,128S287.75,7,80.69,0c0,0,26.37,46.36,43.47,92.73,13.18,35.7,56.15,68.61,111.34,45,0,0-45.42-9.27-91.32-82.53,0,0,22,25,46.88,45C201.8,108.49,241.84,138.62,258,128Z"/><path class="cls-2" d="M118.46,205.52l-5.79-3.73c1.45-1.86,30.89-45.69,120.17-55,84.93-8.86,102.79-30.31,102.79-30.77l5.79,4.19c-1,.94-18.82,24.25-107.62,33.58C147.9,162.63,119,205.52,118.46,205.52Z"/><path class="cls-2" d="M176.37,208.32l-7.23-.46c1.93-33.58,59.84-59.22,62.25-60.62l2.89,6.06C234.28,153.77,178.3,178.48,176.37,208.32Z"/><path class="cls-2" d="M302.06,130.2a144.42,144.42,0,0,1-34.7-.46c-5.78-.93-11.56-1.4-16.86-3.26-2.89-.93-5.78-1.4-8.68-2.33s-5.3-1.86-8.19-2.79-5.3-1.86-8.19-2.79L224,118.1a211.09,211.09,0,0,1-39-23.26c-7.23-6-14.45-12.1-21.2-18.61C160.39,73,157,69.72,153.64,66c-3.37-3.26-6.26-7-9.64-10.24a156,156,0,0,0,18.31,21.4A262.32,262.32,0,0,0,183,96.24c7.71,6.05,22.64,16.75,30.83,21.4.49,0,.49.46,1,.46l7.71,4.19a43.16,43.16,0,0,0,8.19,3.72c11.08,5.12,23.13,7.91,35.18,9.77,12,1.4,24.57,1.4,36.62-1.39,12-2.33,23.61-6.52,33.25-13.49A87,87,0,0,1,302.06,130.2Z"/></svg>