
<svg xmlns="http://www.w3.org/2000/svg" width="56" height="64" viewBox="0 0 56 64" fill="none"><g clip-path="url(#clip0_193_8253)"><path d="M17.8193 35.6364L16.8473 34.9899C17.0903 34.6667 22.0314 27.0707 37.0167 25.4546C51.2729 23.9192 54.27 20.202 54.27 20.1212L55.242 20.8485C55.08 21.0101 52.0829 25.0505 37.1787 26.6667C22.7604 28.202 17.9003 35.6364 17.8193 35.6364Z" fill="#ECC36C"></path><path d="M27.5395 36.1212L26.3245 36.0404C26.6485 30.2222 36.3686 25.7778 36.7737 25.5354L37.2597 26.5859C37.2597 26.6667 27.8635 30.9495 27.5395 36.1212Z" fill="#ECC36C"></path><path d="M37.9887 54.7878C41.0667 47.8383 37.8267 39.7575 30.9415 36.7676C23.9754 33.6969 15.8753 36.9292 12.8782 43.7979C10.2861 49.7777 12.2302 56.6464 17.3333 60.3636L16.5233 61.1716L18.6293 61.2525L18.5483 62.3838L19.9253 61.8181L20.4113 63.1919L21.3023 62.4646L22.5174 63.9191L22.8414 62.707C28.9975 63.9999 35.3966 60.7676 37.9887 54.7878Z" fill="#273C89"></path><path d="M10.8532 43.4747C12.5542 39.6767 15.7132 37.01 19.3583 35.8787C18.8723 35.6363 18.3863 35.3131 17.9003 35.0707C11.5012 32.3232 4.13003 35.1515 1.29498 41.5353C-1.13507 47.0302 0.727968 53.3333 5.42605 56.7272L4.61604 57.4545L6.56007 57.5353L6.47907 58.5858L7.7751 58.1818L8.1801 59.3939L8.99012 58.6666L10.1241 60.0403L10.4481 58.909C11.6632 59.1515 12.9592 59.1515 14.1742 59.0706C9.96214 55.2727 8.42311 49.0504 10.8532 43.4747Z" fill="#273C89"></path><path d="M41.0667 22.303C41.0667 22.303 46.0078 1.21212 11.6632 0C11.6632 0 16.0373 8.08081 18.8723 16.1616C21.0594 22.3838 28.1875 28.1212 37.3407 24C37.3407 24 29.8075 22.3838 22.1934 9.61616C22.1934 9.61616 25.8385 13.9798 29.9695 17.4545C31.7516 18.9091 38.3937 24.1616 41.0667 22.303Z" fill="#273C89"></path><path d="M48.7618 22.5455C46.8178 22.7879 44.8738 22.7071 42.9297 22.4647C41.9577 22.3031 40.9857 22.2223 40.0947 21.8991C39.6087 21.7374 39.1227 21.6566 38.6367 21.495C38.1507 21.3334 37.7456 21.1718 37.2596 21.0102C36.7736 20.8486 36.3686 20.6869 35.8826 20.5253L35.6396 20.4445C32.9666 19.2324 30.0505 17.2122 29.0785 16.4041C27.8635 15.3536 26.6484 14.3031 25.5144 13.1718C24.9474 12.6061 24.3804 12.0405 23.8134 11.394C23.2464 10.8283 22.7604 10.1819 22.1934 9.61623C23.0844 10.9092 24.1374 12.2021 25.2714 13.3334C26.4054 14.5455 27.5395 15.596 28.7545 16.6465C30.0505 17.697 32.5615 19.5556 33.9386 20.3637C34.0196 20.3637 34.0196 20.4445 34.1006 20.4445L35.3966 21.1718C35.8016 21.4142 36.2876 21.6566 36.7736 21.8183C38.6367 22.7071 40.6617 23.192 42.6867 23.5152C44.7118 23.7576 46.8178 23.7576 48.8428 23.2728C50.8679 22.8688 52.8119 22.1415 54.432 20.9294C52.6499 21.8991 50.7059 22.3839 48.7618 22.5455Z" fill="#ECC36C"></path></g><defs><clipPath id="clip0_193_8253"><rect width="55" height="64" fill="white" transform="translate(0.241943)"></rect></clipPath></defs></svg>