<svg width="26" height="23" viewBox="0 0 26 23" fill="none" xmlns="http://www.w3.org/2000/svg">
<g style="mix-blend-mode:darken">
<path d="M24.9673 3.34182H6.59497L6.1314 1.34265C6.10879 1.24523 6.05387 1.15834 5.97558 1.09612C5.89729 1.0339 5.80024 1.00002 5.70024 1H1.44257C1.32519 1 1.21262 1.04663 1.12963 1.12963C1.04663 1.21262 1 1.32519 1 1.44257C1 1.55995 1.04663 1.67252 1.12963 1.75552C1.21262 1.83851 1.32519 1.88514 1.44257 1.88514H5.3486L8.67548 16.2324C8.69808 16.3298 8.753 16.4167 8.83129 16.4789C8.90958 16.5411 9.00663 16.575 9.10664 16.575H19.5385C19.6559 16.575 19.7685 16.5284 19.8515 16.4454C19.9345 16.3624 19.9811 16.2498 19.9811 16.1325C19.9811 16.0151 19.9345 15.9025 19.8515 15.8195C19.7685 15.7365 19.6559 15.6899 19.5385 15.6899H9.45829L8.92306 13.3816H21.4547C21.5442 13.3816 21.6316 13.3544 21.7053 13.3038C21.7791 13.2531 21.8358 13.1813 21.8679 13.0977L25.3805 3.94308C25.4062 3.87605 25.4153 3.80375 25.4068 3.73243C25.3984 3.66111 25.3727 3.59292 25.3321 3.53373C25.2914 3.47454 25.2369 3.42614 25.1734 3.39271C25.1098 3.35927 25.0391 3.3418 24.9673 3.34181L24.9673 3.34182ZM21.1504 12.4965H8.71775L6.80022 4.22696H24.3235L21.1504 12.4965Z" fill="#273C89" stroke="#273C89" stroke-width="0.5"/>
<path d="M10.4905 22.6424C10.978 22.6424 11.4546 22.4979 11.86 22.227C12.2655 21.9562 12.5814 21.5712 12.768 21.1207C12.9546 20.6703 13.0035 20.1746 12.9084 19.6965C12.8132 19.2183 12.5785 18.779 12.2337 18.4342C11.8889 18.0895 11.4497 17.8547 10.9715 17.7596C10.4933 17.6645 9.99765 17.7133 9.54721 17.8999C9.09676 18.0865 8.71177 18.4025 8.44092 18.8079C8.17006 19.2133 8.02551 19.6899 8.02555 20.1775C8.02636 20.831 8.28632 21.4575 8.7484 21.9196C9.21048 22.3816 9.83697 22.6416 10.4905 22.6424ZM10.4905 18.5974C10.8029 18.5973 11.1084 18.69 11.3683 18.8636C11.6281 19.0371 11.8306 19.2839 11.9502 19.5725C12.0699 19.8612 12.1012 20.1789 12.0402 20.4854C11.9793 20.7919 11.8289 21.0734 11.6079 21.2944C11.387 21.5154 11.1055 21.6659 10.799 21.7269C10.4926 21.7879 10.1749 21.7566 9.88617 21.6371C9.59746 21.5175 9.35069 21.315 9.17705 21.0552C9.00342 20.7954 8.91072 20.49 8.91069 20.1775C8.91115 19.7586 9.07773 19.357 9.37388 19.0608C9.67004 18.7646 10.0716 18.5979 10.4905 18.5974V18.5974Z" fill="#273C89" stroke="#273C89" stroke-width="0.5"/>
<path d="M20.921 20.1775C20.9211 19.69 20.7765 19.2133 20.5057 18.8079C20.2348 18.4025 19.8499 18.0866 19.3994 17.9C18.949 17.7133 18.4534 17.6645 17.9752 17.7596C17.497 17.8547 17.0578 18.0894 16.713 18.4341C16.3682 18.7788 16.1334 19.2181 16.0383 19.6962C15.9431 20.1744 15.9919 20.6701 16.1784 21.1205C16.365 21.571 16.6809 21.956 17.0863 22.2269C17.4916 22.4978 17.9682 22.6424 18.4558 22.6424C19.1093 22.6416 19.7358 22.3817 20.198 21.9196C20.6601 21.4575 20.9201 20.831 20.921 20.1775ZM16.876 20.1775C16.876 19.865 16.9686 19.5595 17.1422 19.2997C17.3158 19.0398 17.5625 18.8373 17.8512 18.7177C18.1399 18.5981 18.4576 18.5668 18.7641 18.6277C19.0706 18.6887 19.3522 18.8392 19.5731 19.0601C19.7941 19.2811 19.9446 19.5626 20.0055 19.8691C20.0665 20.1756 20.0352 20.4933 19.9156 20.782C19.796 21.0707 19.5934 21.3175 19.3336 21.4911C19.0738 21.6647 18.7683 21.7573 18.4558 21.7573C18.037 21.7567 17.6354 21.5901 17.3393 21.294C17.0431 20.9978 16.8765 20.5963 16.876 20.1775H16.876Z" fill="#273C89" stroke="#273C89" stroke-width="0.5"/>
</g>
</svg>
