<svg width="26" height="23" viewBox="0 0 26 23" fill="none" xmlns="http://www.w3.org/2000/svg">
<path d="M24.9673 3.34182H6.59497L6.1314 1.34265C6.10879 1.24523 6.05388 1.15834 5.97558 1.09612C5.89729 1.0339 5.80024 1.00002 5.70024 1H1.44257C1.32519 1 1.21262 1.04663 1.12963 1.12963C1.04663 1.21262 1 1.32519 1 1.44257C1 1.55995 1.04663 1.67252 1.12963 1.75552C1.21262 1.83851 1.32519 1.88514 1.44257 1.88514H5.3486L8.67548 16.2324C8.69808 16.3298 8.753 16.4167 8.83129 16.4789C8.90958 16.5411 9.00663 16.575 9.10664 16.575H19.5385C19.6559 16.575 19.7685 16.5284 19.8515 16.4454C19.9345 16.3624 19.9811 16.2498 19.9811 16.1325C19.9811 16.0151 19.9345 15.9025 19.8515 15.8195C19.7685 15.7365 19.6559 15.6899 19.5385 15.6899H9.45829L8.92306 13.3816H21.4547C21.5442 13.3816 21.6316 13.3544 21.7053 13.3038C21.7791 13.2531 21.8358 13.1813 21.8679 13.0977L25.3805 3.94308C25.4062 3.87605 25.4153 3.80375 25.4068 3.73243C25.3984 3.66111 25.3727 3.59292 25.3321 3.53373C25.2914 3.47454 25.2369 3.42614 25.1734 3.39271C25.1098 3.35927 25.0391 3.3418 24.9673 3.34181L24.9673 3.34182ZM21.1504 12.4965H8.71775L6.80022 4.22696H24.3235L21.1504 12.4965Z" fill="white" stroke="white" stroke-width="0.5"/>
<path d="M10.4923 22.6424C10.9798 22.6424 11.4564 22.4979 11.8618 22.227C12.2673 21.9562 12.5832 21.5712 12.7698 21.1208C12.9564 20.6703 13.0053 20.1746 12.9102 19.6965C12.815 19.2183 12.5803 18.779 12.2355 18.4342C11.8907 18.0895 11.4515 17.8547 10.9733 17.7596C10.4951 17.6645 9.99944 17.7133 9.549 17.8999C9.09856 18.0865 8.71357 18.4025 8.44271 18.8079C8.17186 19.2133 8.02731 19.6899 8.02734 20.1775C8.02815 20.831 8.28811 21.4575 8.75019 21.9196C9.21228 22.3816 9.83877 22.6416 10.4923 22.6424ZM10.4923 18.5974C10.8047 18.5973 11.1102 18.69 11.3701 18.8636C11.6299 19.0371 11.8324 19.2839 11.952 19.5725C12.0716 19.8612 12.103 20.1789 12.042 20.4854C11.9811 20.7919 11.8307 21.0734 11.6097 21.2944C11.3888 21.5154 11.1073 21.6659 10.8008 21.7269C10.4944 21.7879 10.1767 21.7566 9.88797 21.6371C9.59926 21.5175 9.35248 21.315 9.17885 21.0552C9.00521 20.7954 8.91252 20.49 8.91248 20.1775C8.91295 19.7586 9.07952 19.357 9.37568 19.0608C9.67183 18.7646 10.0734 18.5979 10.4923 18.5974V18.5974Z" fill="white" stroke="white" stroke-width="0.5"/>
<path d="M20.9224 20.1775C20.9224 19.69 20.7778 19.2133 20.507 18.8079C20.2362 18.4025 19.8512 18.0866 19.4008 17.9C18.9504 17.7133 18.4547 17.6645 17.9765 17.7596C17.4983 17.8547 17.0591 18.0894 16.7143 18.4341C16.3695 18.7789 16.1347 19.2181 16.0396 19.6962C15.9444 20.1744 15.9932 20.6701 16.1798 21.1205C16.3663 21.571 16.6822 21.956 17.0876 22.2269C17.493 22.4978 17.9696 22.6424 18.4571 22.6424C19.1106 22.6416 19.7372 22.3817 20.1993 21.9196C20.6614 21.4575 20.9215 20.831 20.9224 20.1775ZM16.8773 20.1775C16.8773 19.865 16.9699 19.5595 17.1435 19.2997C17.3171 19.0398 17.5639 18.8373 17.8526 18.7177C18.1413 18.5981 18.459 18.5668 18.7655 18.6277C19.072 18.6887 19.3535 18.8392 19.5745 19.0601C19.7954 19.2811 19.9459 19.5626 20.0069 19.8691C20.0678 20.1756 20.0365 20.4933 19.9169 20.782C19.7973 21.0707 19.5948 21.3175 19.3349 21.4911C19.0751 21.6647 18.7696 21.7573 18.4571 21.7573C18.0383 21.7567 17.6368 21.5901 17.3406 21.294C17.0445 20.9978 16.8779 20.5963 16.8773 20.1775H16.8773Z" fill="white" stroke="white" stroke-width="0.5"/>
</svg>
