<svg width="91" height="93" viewBox="0 0 91 93" fill="none" xmlns="http://www.w3.org/2000/svg">
<path d="M10.8354 68.224H3.8119C3.33166 68.224 2.92646 68.5692 2.85142 69.0495L0 87.0584C0 87.0884 0 87.1185 0 87.1485C0 87.4636 0.270135 87.7338 0.585292 87.7338H3.94697C4.42721 87.7338 4.83241 87.3886 4.90744 86.9083L5.67283 82.0459C5.74786 81.5807 6.15307 81.2205 6.6333 81.2205H8.85441C13.4767 81.2205 16.148 78.9844 16.8534 74.5422C17.1686 72.6062 16.8684 71.0755 15.9529 70.0099C14.9625 68.8394 13.1916 68.224 10.8354 68.224ZM11.6458 74.7973C11.2556 77.3186 9.33465 77.3186 7.47372 77.3186H6.40819L7.15857 72.6062C7.20359 72.3211 7.44371 72.111 7.74386 72.111H8.2241C9.49973 72.111 10.6853 72.111 11.3006 72.8313C11.6758 73.2666 11.7959 73.9119 11.6458 74.7973ZM31.8309 74.7223H28.4692C28.184 74.7223 27.9289 74.9324 27.8839 75.2175L27.7338 76.163L27.4937 75.8178C26.7583 74.7673 25.1375 74.4071 23.5167 74.4071C19.7949 74.4071 16.6283 77.2285 16.013 81.1755C15.6978 83.1415 16.148 85.0324 17.2586 86.3381C18.2791 87.5387 19.7498 88.0489 21.4907 88.0489C24.4922 88.0489 26.143 86.128 26.143 86.128L25.9929 87.0584C25.9929 87.0884 25.9929 87.1185 25.9929 87.1485C25.9929 87.4636 26.2631 87.7338 26.5782 87.7338H29.6098C30.09 87.7338 30.4952 87.3886 30.5702 86.9083L32.3861 75.3976C32.3861 75.3676 32.3861 75.3376 32.3861 75.3076C32.4161 74.9774 32.161 74.7223 31.8309 74.7223ZM27.1485 81.2655C26.8184 83.1865 25.3026 84.4771 23.3516 84.4771C22.3761 84.4771 21.5958 84.162 21.1005 83.5767C20.6053 82.9914 20.4102 82.151 20.5753 81.2205C20.8754 79.3146 22.4362 77.9789 24.3421 77.9789C25.3026 77.9789 26.068 78.2941 26.5782 78.8944C27.0885 79.4947 27.2986 80.3351 27.1485 81.2655ZM49.7498 74.7223H46.3731C46.0429 74.7223 45.7428 74.8874 45.5627 75.1575L40.8954 82.0309L38.9144 75.4276C38.7943 75.0224 38.4041 74.7373 37.9839 74.7373H34.6673C34.3521 74.7373 34.082 75.0074 34.082 75.3226C34.082 75.3826 34.097 75.4576 34.112 75.5177L37.8339 86.4431L34.3371 91.3806C34.2621 91.4856 34.2321 91.6057 34.2321 91.7258C34.2321 92.0409 34.5022 92.311 34.8173 92.311H38.194C38.5092 92.311 38.8093 92.161 38.9894 91.8908L50.23 75.6377C50.3051 75.5477 50.3351 75.4276 50.3351 75.3076C50.3351 74.9774 50.0649 74.7223 49.7498 74.7223Z" fill="#0B2F87"/>
<path d="M60.9454 68.224H53.9219C53.4417 68.224 53.0364 68.5691 52.9614 69.0494L50.125 87.0583C50.125 87.0884 50.125 87.1184 50.125 87.1484C50.125 87.4636 50.3951 87.7337 50.7103 87.7337H54.3121C54.6422 87.7337 54.9274 87.4936 54.9874 87.1634L55.7978 82.0609C55.8729 81.5956 56.2781 81.2354 56.7583 81.2354H58.9794C63.6017 81.2354 66.273 78.9993 66.9784 74.5571C67.2936 72.6212 66.9934 71.0904 66.0779 70.0249C65.0574 68.8393 63.2866 68.224 60.9454 68.224ZM61.7558 74.7972C61.3656 77.3185 59.4446 77.3185 57.5837 77.3185H56.5182L57.2686 72.6061C57.3136 72.321 57.5537 72.1109 57.8388 72.1109H58.3191C59.5797 72.1109 60.7803 72.1109 61.3956 72.8313C61.7858 73.2665 61.8909 73.9118 61.7558 74.7972ZM81.9408 74.7222H78.5792C78.294 74.7222 78.0389 74.9323 78.0089 75.2175L77.8588 76.1629L77.6187 75.8178C76.8833 74.7672 75.2625 74.407 73.6417 74.407C69.9199 74.407 66.7533 77.2285 66.138 81.1754C65.8228 83.1414 66.273 85.0323 67.3836 86.338C68.4041 87.5386 69.8748 88.0488 71.6157 88.0488C74.6172 88.0488 76.268 86.1279 76.268 86.1279L76.118 87.0583C76.118 87.0884 76.118 87.1184 76.118 87.1484C76.118 87.4636 76.3881 87.7337 76.7032 87.7337H79.7347C80.215 87.7337 80.6202 87.3885 80.6952 86.9083L82.5111 75.3975C82.5111 75.3675 82.5111 75.3375 82.5111 75.3075C82.5261 74.9773 82.256 74.7222 81.9408 74.7222ZM77.2435 81.2655C76.9133 83.1864 75.3976 84.4771 73.4466 84.4771C72.4711 84.4771 71.6907 84.1619 71.1955 83.5766C70.7002 82.9913 70.5052 82.1509 70.6702 81.2204C70.9704 79.3145 72.5312 77.9788 74.4371 77.9788C75.3976 77.9788 76.163 78.294 76.6732 78.8943C77.1985 79.4946 77.3936 80.335 77.2435 81.2655ZM85.9028 68.7192L83.0214 87.0583C83.0214 87.0884 83.0214 87.1184 83.0214 87.1484C83.0214 87.4636 83.2915 87.7337 83.6067 87.7337H86.5031C86.9834 87.7337 87.3886 87.3885 87.4636 86.9083L90.3 68.8993C90.3 68.8693 90.3 68.8393 90.3 68.8093C90.3 68.4941 90.0299 68.224 89.7147 68.224H86.4731C86.188 68.224 85.9478 68.4341 85.9028 68.7192Z" fill="#219CDF"/>
<path d="M33.8269 59.8048L34.8925 52.9914L32.5063 52.9314H21.1006L29.0245 2.64134C29.0696 2.32618 29.3547 2.08606 29.6699 2.08606H48.9094C55.3026 2.08606 59.6998 3.42173 62.011 6.03303C63.0915 7.26364 63.7818 8.55428 64.112 9.96498C64.4572 11.4507 64.4722 13.2216 64.127 15.3827L64.097 15.5478V16.9285L65.1775 17.5438C66.003 17.964 66.7383 18.5192 67.3686 19.2096C68.2991 20.2601 68.8844 21.5958 69.1395 23.1866C69.3946 24.8224 69.3196 26.7584 68.8844 28.9494C68.3891 31.4707 67.5937 33.6768 66.5282 35.4777C65.5827 37.0985 64.3071 38.4942 62.7914 39.5747C61.3656 40.5952 59.6698 41.3606 57.7488 41.8559C55.8879 42.3361 53.7719 42.5912 51.4457 42.5912H49.945C48.8794 42.5912 47.8289 42.9814 47.0185 43.6718C46.2081 44.3771 45.6678 45.3376 45.4877 46.4031L45.3677 47.0184L43.4767 59.0244L43.3867 59.4596C43.3717 59.5947 43.3267 59.6697 43.2666 59.7148C43.2066 59.7598 43.1466 59.7898 43.0715 59.7898H33.8269V59.8048Z" fill="#0B2F87"/>
<path d="M66.1979 15.7278C66.1379 16.088 66.0779 16.4632 66.0028 16.8534C63.4666 29.8799 54.7773 34.3821 43.7017 34.3821H38.0589C36.7083 34.3821 35.5527 35.3726 35.3426 36.7083L32.4461 55.0324L31.6207 60.225C31.6057 60.3 31.6057 60.3751 31.6057 60.4501C31.6057 61.2455 32.251 61.8908 33.0464 61.8908H43.0714C44.257 61.8908 45.2625 61.0354 45.4576 59.8648L45.5627 59.3546L47.4536 47.3936L47.5737 46.7333C47.7538 45.5627 48.7743 44.6923 49.9599 44.6923H51.4606C61.1554 44.6923 68.7492 40.7603 70.9703 29.3546C71.9008 24.5973 71.4205 20.6203 68.9593 17.8289C68.1639 16.9735 67.2335 16.2531 66.1979 15.7278Z" fill="#219CDF"/>
<path d="M63.5416 14.6623C62.7312 14.4222 61.9058 14.2421 61.0804 14.122C59.4295 13.8669 57.7637 13.7468 56.0979 13.7619H41.0154C39.8298 13.7619 38.8243 14.6323 38.6442 15.8029L35.4326 36.123L35.3425 36.7083C35.5526 35.3726 36.7082 34.3821 38.0589 34.3821H43.7017C54.7922 34.3821 63.4665 29.8799 66.0028 16.8534C66.0778 16.4632 66.1379 16.088 66.1979 15.7278C65.5226 15.3827 64.8322 15.0825 64.1119 14.8424C63.9318 14.7824 63.7367 14.7223 63.5416 14.6623Z" fill="#16226A"/>
<path d="M38.6441 15.7879C38.8242 14.6173 39.8447 13.7468 41.0153 13.7619H56.0978C57.8837 13.7619 59.5496 13.8819 61.0803 14.122C62.1158 14.2871 63.1213 14.5272 64.1118 14.8424C64.8622 15.0975 65.5525 15.3827 66.1979 15.7278C66.9482 10.9104 66.1979 7.63881 63.5866 4.66733C60.7201 1.3957 55.5426 0 48.9243 0H29.6697C28.319 0 27.1634 0.990494 26.9533 2.32616L18.9393 53.1265C18.9243 53.2165 18.9243 53.2915 18.9243 53.3816C18.9243 54.282 19.6747 55.0324 20.5751 55.0324H32.4611L35.4475 36.108L38.6441 15.7879Z" fill="#0B2F87"/>
</svg>
