<svg xmlns="http://www.w3.org/2000/svg" width="48" height="61" viewBox="0 0 48 61" fill="none"><path d="M7.99979 51.2148C7.119 51.2148 6.40034 51.9359 6.40034 52.8202C6.40034 53.7045 7.119 54.4256 7.99979 54.4256H40.0002C40.8804 54.4256 41.599 53.7045 41.599 52.8202C41.599 51.9359 40.8804 51.2148 40.0002 51.2148H7.99979ZM46.3993 6.42081C45.5178 6.42081 44.7992 7.14184 44.7992 8.02618V56.1833C44.7992 57.0676 44.0812 57.7886 43.1991 57.7886H7.99979C5.35292 57.7886 3.20017 55.6281 3.20017 52.9725C3.20017 50.3176 5.35292 48.1564 7.99979 48.1564H36.8C39.4469 48.1564 41.5997 45.9966 41.5997 43.3416V4.8161C41.5997 2.1605 39.4469 0 36.8 0H4.79897C2.15275 0 0 2.1605 0 4.8161V52.9732C0 57.3974 3.5907 61 7.99979 61H43.1991C45.846 61 48 58.8395 48 56.1839V8.02683C48 7.14184 47.2807 6.42081 46.3993 6.42081Z" fill="#273C89"></path></svg>