<svg xmlns="http://www.w3.org/2000/svg" width="48" height="40" viewBox="0 0 48 40" fill="none"><path d="M43.8261 0.00535742C46.1312 0.00535742 48 2.80846 48 6.26622C48 9.18518 46.6714 11.638 44.8696 12.3314V19.6957C44.5417 19.5777 44.1923 19.5 43.8261 19.5C43.4599 19.5 43.1105 19.5777 42.7826 19.6957V12.3314C40.9808 11.638 39.6522 9.18518 39.6522 6.26622C39.6522 2.80846 41.521 0.00535742 43.8261 0.00535742ZM9.50551 0.00535742C10.0182 0.061653 10.4459 0.549765 10.4349 1.06514V8.36944C10.4349 10.8814 8.63399 13.0012 6.26095 13.4891V19.6957C5.93306 19.5778 5.58368 19.5 5.21747 19.5C4.85126 19.5 4.50189 19.5778 4.174 19.6957V13.4891C1.80095 13.0012 8.9477e-05 10.8814 8.9477e-05 8.36944V1.06514C-0.00768442 0.514183 0.492266 0.00535742 1.04357 0.00535742C1.59487 0.00535742 2.09482 0.514183 2.08704 1.06514V8.36944C2.08704 9.75403 2.94741 10.9156 4.174 11.3369V1.06514C4.16126 0.473539 4.74311 -0.0594425 5.3316 0.00535742C5.84431 0.061653 6.27203 0.549765 6.26095 1.06514V11.3369C7.48753 10.9156 8.3479 9.75403 8.3479 8.36944V1.06514C8.33517 0.473539 8.91702 -0.0594425 9.50551 0.00535742ZM24.5218 6.26622C32.0136 6.26622 38.087 12.3396 38.087 19.8314C38.087 27.3232 32.0136 33.3966 24.5218 33.3966C17.03 33.3966 10.9566 27.3232 10.9566 19.8314C10.9566 12.3396 17.03 6.26622 24.5218 6.26622ZM24.5218 12.0053C20.2119 12.0053 16.6957 15.5215 16.6957 19.8314C16.6957 24.1413 20.2119 27.6575 24.5218 27.6575C28.8316 27.6575 32.3479 24.1413 32.3479 19.8314C32.3479 15.5215 28.8316 12.0053 24.5218 12.0053ZM24.5218 14.0923C27.7038 14.0923 30.2609 16.6494 30.2609 19.8314C30.2609 23.0134 27.7038 25.5705 24.5218 25.5705C21.3398 25.5705 18.7827 23.0134 18.7827 19.8314C18.7827 16.6494 21.3398 14.0923 24.5218 14.0923ZM43.8261 18.7879C44.9823 18.7879 45.913 19.7187 45.913 20.8749V37.5705C45.913 38.7267 44.9823 39.6575 43.8261 39.6575C42.6699 39.6575 41.7391 38.7267 41.7391 37.5705V20.8749C41.7391 19.7187 42.6699 18.7879 43.8261 18.7879ZM5.21747 18.8041C6.37361 18.8041 7.30442 19.7356 7.30442 20.8911V37.5705C7.30442 38.7261 6.37361 39.6575 5.21747 39.6575C4.06134 39.6575 3.13052 38.7261 3.13052 37.5705V20.8912C3.13052 19.7357 4.06134 18.8041 5.21747 18.8041Z" fill="#273C89"></path></svg>