<svg xmlns="http://www.w3.org/2000/svg" width="58" height="58" viewBox="0 0 58 58" fill="none"><path d="M29 0C12.9803 0 0 12.9803 0 29C0 45.0197 12.9803 58 29 58C45.0197 58 58 45.0197 58 29C58 12.9803 45.0197 0 29 0ZM17.9995 41.3947C17.6231 42.0361 16.9538 42.3846 16.2567 42.3846C15.9082 42.3846 15.5596 42.301 15.2389 42.1058C14.2769 41.5481 13.9563 40.3212 14.5139 39.3591L16.4937 36.0688C16.7029 35.7202 17.0654 35.5111 17.4697 35.5111H17.7625C19.1986 35.5111 20.2024 36.3755 20.4952 37.212L17.9995 41.3947ZM34.7582 34.9255L21.7918 34.9394H13.1755C12.0322 34.9394 11.112 33.9913 11.1678 32.8481C11.2096 31.7606 12.1577 30.938 13.2452 30.938H19.4913L26.8947 18.3341L24.4966 14.249C23.9529 13.3149 24.1899 12.088 25.1101 11.5024C26.0861 10.875 27.3687 11.1957 27.9404 12.1716L29.2231 14.3606H29.237L30.5197 12.1716C31.0913 11.1957 32.388 10.875 33.35 11.5024C34.2702 12.088 34.5072 13.3149 33.9635 14.249L31.5654 18.3341L29.237 22.3077L24.176 30.938V30.9519H31.6351C32.5692 30.9519 33.7404 31.4538 34.2144 32.2625L34.2563 32.3462C34.6745 33.0572 34.9115 33.5452 34.9115 34.2563C34.8976 34.6466 34.7582 34.9255 34.7582 34.9255ZM44.8245 34.9394H41.3111V34.9534L43.8764 39.3173C44.4341 40.2654 44.1692 41.5202 43.2072 42.1058C42.8865 42.301 42.524 42.3986 42.1615 42.3986C41.4644 42.3986 40.7952 42.0361 40.4187 41.4086L36.6264 34.9534L34.2702 30.938L31.2308 25.7375C30.3385 24.2178 30.2966 22.3216 31.1471 20.8159C31.7466 19.7562 32.2067 19.4774 32.2067 19.4774L38.9688 30.924H44.7827C45.8702 30.924 46.8043 31.7606 46.8601 32.8341C46.9019 33.9913 45.9817 34.9394 44.8245 34.9394Z" fill="white"></path></svg>