<svg width="38" height="43" viewBox="0 0 38 43" fill="none" xmlns="http://www.w3.org/2000/svg">
<path d="M18.8581 25.6511C22.5968 25.6511 25.6276 22.6175 25.6276 18.8754C25.6276 15.1332 22.5968 12.0996 18.8581 12.0996C15.1194 12.0996 12.0885 15.1332 12.0885 18.8754C12.0885 22.6175 15.1194 25.6511 18.8581 25.6511Z" fill="#ECC36C"/>
<path d="M32.3972 5.8078C29.0124 1.93593 24.177 0 18.8581 0C13.5391 0 9.18726 1.93593 5.31894 5.8078C1.93416 9.19569 0 14.0355 0 18.8754C0 28.071 6.28602 35.3308 14.9897 37.2667L18.8581 42.5905L22.7264 37.2667C31.4301 35.3308 37.7161 27.5871 37.7161 18.8754C38.1996 14.0355 36.2655 9.19569 32.3972 5.8078ZM18.8581 3.87187C27.0782 3.87187 33.8478 10.6476 33.8478 18.8754C33.8478 27.1031 27.0782 33.8788 18.8581 33.8788C10.6379 33.8788 3.86832 27.1031 3.86832 18.8754C3.86832 10.6476 10.6379 3.87187 18.8581 3.87187Z" fill="#ECC36C"/>
</svg>
