<svg xmlns="http://www.w3.org/2000/svg" width="383" height="212" viewBox="0 0 383 212" fill="none"><g clip-path="url(#clip0_6_14745)"><path d="M177.928 50.6705L176.549 49.7513C176.894 49.2917 183.901 38.4912 205.153 36.1932C225.371 34.0101 229.621 28.7248 229.621 28.6099L231 29.644C230.77 29.8738 226.52 35.6187 205.383 37.9167C184.935 40.0998 178.043 50.6705 177.928 50.6705Z" fill="#ECC36C"></path><path d="M191.713 51.3598L189.99 51.2449C190.449 42.9722 204.234 36.6528 204.809 36.3081L205.498 37.8018C205.498 37.9167 192.172 44.0063 191.713 51.3598Z" fill="#ECC36C"></path><path d="M206.532 77.9015C210.897 68.0202 206.302 56.5303 196.538 52.279C186.658 47.9129 175.171 52.5088 170.921 62.2753C167.245 70.7778 170.002 80.5442 177.239 85.8295L176.09 86.9785L179.077 87.0934L178.962 88.702L180.915 87.8977L181.604 89.851L182.868 88.8169L184.591 90.8851L185.05 89.1616C193.781 91 202.856 86.404 206.532 77.9015Z" fill="#273C89"></path><path d="M168.048 61.8157C170.461 56.4154 174.941 52.6237 180.11 51.0152C179.421 50.6705 178.732 50.2109 178.042 49.8662C168.967 45.9596 158.514 49.9811 154.493 59.0581C151.047 66.8712 153.689 75.8333 160.352 80.6591L159.203 81.6932L161.96 81.8081L161.845 83.3018L163.683 82.7273L164.258 84.4508L165.406 83.4167L167.014 85.37L167.474 83.7614C169.197 84.1061 171.035 84.1061 172.758 83.9912C166.785 78.5909 164.602 69.7437 168.048 61.8157Z" fill="#273C89"></path><path d="M210.897 31.7121C210.897 31.7121 217.904 1.72348 169.197 0C169.197 0 175.401 11.4899 179.421 22.9798C182.523 31.827 192.632 39.9848 205.613 34.125C205.613 34.125 194.929 31.827 184.131 13.673C184.131 13.673 189.3 19.8775 195.159 24.8182C197.686 26.8864 207.106 34.3548 210.897 31.7121Z" fill="#273C89"></path><path d="M221.81 32.0568C219.053 32.4015 216.296 32.2866 213.539 31.9419C212.16 31.7121 210.782 31.5972 209.518 31.1376C208.829 30.9078 208.14 30.7929 207.45 30.5631C206.761 30.3333 206.187 30.1035 205.498 29.8737C204.808 29.6439 204.234 29.4141 203.545 29.1843L203.2 29.0694C199.409 27.346 195.274 24.4735 193.895 23.3245C192.172 21.8308 190.449 20.3371 188.841 18.7285C188.037 17.9242 187.232 17.1199 186.428 16.2008C185.624 15.3965 184.935 14.4773 184.131 13.673C185.394 15.5114 186.888 17.3497 188.496 18.9583C190.104 20.6818 191.713 22.1755 193.436 23.6692C195.274 25.1629 198.835 27.8056 200.788 28.9545C200.903 28.9545 200.903 29.0694 201.017 29.0694L202.855 30.1035C203.43 30.4482 204.119 30.7929 204.808 31.0227C207.45 32.2866 210.322 32.976 213.194 33.4356C216.066 33.7803 219.053 33.7803 221.925 33.0909C224.797 32.5164 227.554 31.4823 229.851 29.7588C227.324 31.1376 224.567 31.827 221.81 32.0568Z" fill="#ECC36C"></path></g><path d="M186.028 200.998V211.577H184.345V206.922L183.503 209.038C181.82 211.154 179.715 212 177.19 212C170.877 212 167.089 207.345 167.089 200.575C167.089 193.804 171.298 188.727 177.611 188.727C183.082 188.727 186.028 192.112 186.449 196.343V196.766H184.345V196.343C183.503 192.535 180.978 190.419 177.19 190.419C172.56 190.419 169.193 194.228 169.193 200.575C169.193 206.922 172.56 210.73 177.19 210.73C180.557 210.73 184.345 208.192 184.345 203.114H178.453V201.421H186.028V200.998Z" fill="#273C89"></path><path d="M197.392 194.228V195.92C194.446 195.497 192.342 197.613 192.342 202.267V211.577H190.237V194.228H192.342V197.19L193.604 195.074C194.446 194.228 195.288 193.804 196.55 193.804C196.971 193.804 196.971 194.228 197.392 194.228Z" fill="#273C89"></path><path d="M202.443 190.842C202.443 191.689 202.022 192.112 201.18 192.112C200.338 192.112 199.917 191.689 199.917 190.842C199.917 189.996 200.338 189.573 201.18 189.573C202.022 189.15 202.443 189.996 202.443 190.842ZM199.917 211.577V194.228H202.022V211.577H199.917Z" fill="#273C89"></path><path d="M208.756 206.922C208.756 207.768 208.756 208.192 208.756 208.615C208.756 209.884 209.177 209.884 210.86 209.884V211.577C210.439 211.577 209.598 211.577 209.177 211.577C207.914 211.577 206.651 211.154 206.651 209.461C206.651 209.038 206.651 208.192 206.651 207.345V187.88H208.756V206.922Z" fill="#273C89"></path><path d="M215.911 206.922C215.911 207.768 215.911 208.192 215.911 208.615C215.911 209.884 216.331 209.884 218.015 209.884V211.577C217.594 211.577 216.752 211.577 216.331 211.577C215.069 211.577 213.806 211.154 213.806 209.461C213.806 209.038 213.806 208.192 213.806 207.345V187.88H215.911V206.922Z" fill="#273C89"></path><path d="M383 176.032H0V176.878H383V176.032Z" fill="#ECC36C"></path><path d="M5.4716 163.337H26.0947C29.4617 163.337 31.987 162.491 33.6705 160.375C35.354 158.26 36.6167 156.144 36.6167 152.758C36.6167 151.489 36.1958 150.22 35.7749 148.95C35.354 147.681 34.5123 146.411 33.2496 145.565C33.6705 145.988 33.6705 146.411 34.0914 146.834C34.5123 147.258 34.5123 147.681 34.9331 148.527C35.354 148.95 35.354 149.796 35.354 150.22C35.354 151.066 35.354 151.489 35.354 151.912C35.354 153.605 34.9331 154.874 34.5123 156.144C34.0914 157.413 33.2496 158.683 32.4079 159.529C31.987 160.798 30.7243 161.645 29.4617 162.068C28.1991 162.491 26.9364 162.914 25.2529 162.914H3.78809V162.068L5.89248 159.952V132.447L3.78809 130.331V129.485H21.0441C22.7276 129.485 23.9903 129.908 25.6738 130.331C26.9364 131.178 28.1991 132.024 29.0408 132.87C30.7243 134.14 31.5661 135.832 32.4079 137.525V137.948C32.4079 138.371 32.4079 138.371 32.8287 138.794C32.8287 139.218 32.8287 139.218 32.8287 139.641V140.064C32.8287 140.487 32.8287 140.487 32.8287 140.487V140.91C32.8287 140.91 32.8287 140.91 32.8287 141.333C32.8287 141.333 32.8287 141.333 32.8287 141.757V142.18C32.8287 142.603 32.8287 142.603 32.8287 143.026C32.8287 143.449 32.8287 143.449 32.8287 143.872V144.295V144.719V145.142L33.2496 145.565L33.6705 145.988L34.0914 146.411C34.9331 147.257 35.7749 148.527 36.6167 150.22V150.643C36.6167 151.066 37.0375 151.489 37.0375 152.335V152.758C37.0375 153.182 37.0375 153.182 37.0375 153.182V153.605C37.0375 153.605 37.0375 153.605 37.0375 154.028C37.0375 154.028 37.0375 154.028 37.0375 154.451V154.874C37.0375 155.297 37.0375 155.297 37.0375 155.721C37.0375 156.144 37.0375 156.144 37.0375 156.567V156.99C37.0375 157.413 37.0375 157.413 36.6167 157.836C36.6167 158.259 36.6167 158.259 36.1958 158.683V159.106C36.1958 159.529 35.7749 159.529 35.7749 159.952C35.7749 160.375 35.354 160.375 35.354 160.798L34.9331 161.222C34.5123 161.645 34.5123 161.645 34.0914 162.068C33.6705 162.068 33.6705 162.491 33.2496 162.914L32.4079 163.337C31.5661 163.76 30.7243 164.184 29.8826 164.184C29.0408 164.607 27.7782 164.607 26.5156 164.607H5.4716V163.337ZM14.3101 137.525V141.757H15.1518V138.371H22.3068C22.7276 138.371 23.1485 138.371 23.5694 138.371C23.5694 137.948 23.1485 137.948 22.7276 137.525C22.3068 137.525 21.8859 137.102 21.465 137.102H14.3101V137.525ZM14.3101 150.22V154.451H15.1518V151.066H25.6738C26.0947 151.066 26.0947 151.066 26.5156 151.066C26.9364 151.066 26.9364 151.066 27.3573 151.066C26.9364 150.643 26.9364 150.22 26.5156 150.22C26.0947 150.22 26.0947 150.22 25.6738 150.22H14.3101ZM15.5727 139.641V141.757H21.0441C22.3068 141.757 23.1485 140.91 23.1485 139.641H15.5727ZM15.5727 151.912V154.451H25.2529C26.5156 154.451 27.3573 153.605 27.3573 151.912H15.5727ZM31.987 144.295C32.4079 143.026 32.4079 141.757 32.4079 140.487C32.4079 139.218 31.987 137.948 31.5661 137.102C31.1452 136.256 30.3035 134.986 29.4617 134.14C30.7243 135.832 31.5661 137.948 31.5661 140.064C31.5661 141.333 31.5661 142.603 31.1452 143.872L31.5661 144.295H31.987Z" fill="#273C89"></path><path d="M151.517 163.337H172.14C175.507 163.337 178.032 162.491 179.715 160.375C181.399 158.259 182.662 156.144 182.662 152.758C182.662 151.489 182.241 150.22 181.82 148.95C181.399 147.681 180.557 146.411 179.295 145.565C179.715 145.988 179.715 146.411 180.136 146.834C180.557 147.257 180.557 147.681 180.978 148.527C181.399 148.95 181.399 149.796 181.399 150.22C181.399 151.066 181.399 151.489 181.399 151.912C181.399 153.605 180.978 154.874 180.557 156.144C180.136 157.413 179.295 158.683 178.453 159.529C177.611 160.375 176.348 161.222 175.086 161.645C173.823 162.068 172.56 162.491 170.877 162.491H149.412V161.645L151.517 159.529V132.024L149.412 129.908V129.062H166.668C168.352 129.062 169.614 129.485 171.298 129.908C172.56 130.755 173.823 131.601 174.665 132.447C176.348 133.717 177.19 135.409 178.032 137.102V137.525C178.032 137.948 178.032 137.948 178.453 138.371C178.453 138.794 178.453 138.794 178.453 139.218V139.641C178.453 140.064 178.453 140.064 178.453 140.064V140.487C178.453 140.487 178.453 140.487 178.453 140.91C178.453 140.91 178.453 140.91 178.453 141.333V141.756C178.453 142.18 178.453 142.18 178.453 142.603C178.453 143.026 178.453 143.026 178.453 143.449V143.872V144.295V144.719L178.874 145.142L179.295 145.565L179.715 145.988C180.557 146.834 181.399 148.104 182.241 149.796V150.22C182.241 150.643 182.662 151.066 182.662 151.912V152.335C182.662 152.758 182.662 152.758 182.662 152.758V153.182C182.662 153.182 182.662 153.182 182.662 153.605C182.662 153.605 182.662 153.605 182.662 154.028V154.451C182.662 154.874 182.662 154.874 182.662 155.297C182.662 155.721 182.662 155.721 182.662 156.144V156.567C182.662 156.99 182.662 156.99 182.241 157.413C182.241 157.836 182.241 157.836 181.82 158.259V158.683C181.82 159.106 181.399 159.106 181.399 159.529C181.399 159.952 180.978 159.952 180.978 160.375L180.557 160.798C180.136 161.222 180.136 161.222 179.715 161.645C179.295 162.068 178.874 162.068 178.453 162.491L177.611 162.914C176.769 163.337 175.927 163.76 175.086 163.76C174.244 164.184 172.981 164.184 171.719 164.184H150.675V163.337H151.517ZM160.355 137.525V141.756H161.197V138.371H168.352C168.773 138.371 169.193 138.371 169.614 138.371C169.614 137.948 169.193 137.948 168.773 137.525C168.352 137.525 167.931 137.102 167.51 137.102H160.355V137.525ZM160.355 150.22V154.451H161.197V151.066H171.719C172.14 151.066 172.14 151.066 172.56 151.066C172.981 151.066 172.981 151.066 173.402 151.066C172.981 150.643 172.981 150.22 172.56 150.22C172.14 150.22 172.14 150.22 171.719 150.22H160.355ZM162.038 139.641V141.756H167.51C168.773 141.756 169.614 140.91 169.614 139.641H162.038ZM162.038 151.912V154.451H171.719C172.981 154.451 173.823 153.605 173.823 151.912H162.038ZM178.032 144.295C178.453 143.026 178.453 141.756 178.453 140.487C178.453 139.218 178.032 137.948 177.611 137.102C177.19 136.256 176.348 134.986 175.507 134.14C176.769 135.832 177.611 137.948 177.611 140.064C177.611 141.333 177.611 142.603 177.19 143.872L177.611 144.295C178.032 144.295 178.032 144.295 178.032 144.295Z" fill="#273C89"></path><path d="M44.6132 132.447L42.5088 130.331V129.485H55.1352V130.331L53.0308 132.447V154.451H53.8725V133.293L55.9769 131.178H56.8187V132.024L55.1352 133.717L54.7143 134.14V135.832V136.256V137.525V137.948V139.641V140.064V141.757V142.18V143.872V144.295V145.988V146.411V148.104V148.527V150.22V150.643V152.335V152.758V154.451H67.7615L69.8659 152.335H70.7077V162.914H42.5088V162.068L44.6132 159.952V132.447Z" fill="#273C89"></path><path d="M72.3913 163.337V164.184H44.1924V163.337H71.5495V154.028H72.3913V158.683V159.106V160.798V161.222V162.914V163.337Z" fill="#273C89"></path><path d="M85.0181 162.914C84.5972 162.491 84.1763 162.491 83.3346 162.068C82.9137 161.645 82.4928 161.645 82.0719 161.222V160.798C81.2302 160.375 80.8093 159.529 80.3884 159.106C79.5467 158.259 78.7049 157.413 77.8631 156.567C77.4423 155.721 77.0214 154.451 77.0214 152.758V132.447L74.917 130.331V129.485H87.5434V130.331L85.439 132.447V151.489C85.439 151.912 85.8599 152.759 86.2807 153.182C86.2807 152.759 86.2807 152.759 86.2807 152.335V133.293L88.3851 131.178H89.2269V132.024L87.5434 133.717L87.1225 134.14V135.832V136.256V137.948V138.371V139.641V140.064V141.757V142.18V143.872V144.295V145.988V146.411V148.104V148.527V150.22V150.643V152.335V152.758C87.1225 153.182 87.1225 153.182 87.1225 153.605C87.5434 154.028 88.3851 154.028 88.806 154.028C89.6478 154.028 90.4895 154.451 91.3313 154.451C92.5939 154.451 93.4357 154.451 94.2774 154.028C95.1192 154.028 95.5401 153.605 96.3818 153.182C96.8027 152.759 97.2236 152.759 97.6445 152.335C98.0653 151.912 98.0653 151.489 98.0653 151.489V132.447L95.9609 130.331V129.485H108.587V130.331L106.483 132.447V152.758C106.483 154.451 106.062 156.144 105.22 157.413C104.379 158.683 103.116 159.529 101.432 160.375C100.17 161.222 98.4862 161.645 96.8027 162.068C95.1192 162.491 93.4357 162.491 92.173 162.491C91.3313 162.491 90.4895 162.491 89.6478 162.491C88.806 162.491 87.9642 162.068 86.7016 162.068C85.8599 161.645 85.0181 161.645 83.7555 161.222C82.9137 160.798 82.0719 160.375 81.2302 159.952C82.9137 161.645 84.5972 162.491 86.7016 163.337C88.806 163.76 90.9104 164.184 93.0148 164.184C95.961 164.184 98.9071 163.761 101.432 162.491C102.695 162.068 103.537 161.222 104.379 160.798C105.22 159.952 106.062 159.106 106.483 158.26C106.904 157.413 107.325 156.144 107.325 154.874C107.325 153.605 107.325 152.335 107.325 150.643V134.14L109.429 132.024H110.271V132.87L108.587 134.563L108.166 134.986V136.679V137.102V138.794V139.218V139.641V140.064V141.757V142.18V143.872V144.295V145.988V146.411V148.104V148.527V149.796V150.22V150.643V152.335V152.758C108.166 153.182 108.166 153.182 108.166 153.605C108.166 154.028 108.166 154.028 108.166 154.451V154.874C108.166 155.297 108.166 156.144 107.746 156.567V156.99V157.413V157.836C107.746 157.836 107.746 157.836 107.746 158.26C107.746 158.26 107.746 158.259 107.746 158.683V159.106C107.325 159.529 106.904 160.375 106.483 160.798L106.062 161.222C105.641 161.645 105.22 161.645 104.799 162.068C104.379 162.491 103.958 162.491 103.537 162.914L102.274 163.337C101.011 163.76 99.7489 164.184 98.4862 164.184C97.2236 164.184 96.3818 164.607 95.5401 164.607C94.2774 164.607 93.4357 164.607 92.173 164.184C90.9104 163.76 89.6478 163.76 88.806 163.337L85.0181 162.914Z" fill="#273C89"></path><path d="M125.422 150.22V154.451H126.264V151.066H136.365V143.449H137.207V148.104V148.527V150.22V150.643V151.912H127.106V152.335V152.758V154.451H140.153L142.258 152.335H143.099V162.914H114.9V162.068L117.005 159.952V132.447L114.9 130.331V129.485H140.153V137.525H125.422V141.757H126.264V138.794H140.995V131.178H141.837V135.832V136.256V137.525V137.948V139.641H127.106V140.064V141.757H135.523V150.22H125.422Z" fill="#273C89"></path><path d="M144.782 163.337V164.184H116.583V163.337H143.941V154.028H144.782V158.683V159.106V160.798V161.222V162.914V163.337Z" fill="#273C89"></path><path d="M199.076 150.22V154.451H199.918V151.066H210.019V143.449H210.861V148.104V148.527V150.22V150.643V151.912H200.76V152.335V152.758V154.451H213.807L215.911 152.335H217.174V162.914H188.975V162.068L191.079 159.952V132.447L188.975 130.331V129.485H213.807V137.525H199.076V141.757H199.918V138.794H214.649V131.178H215.49V135.832V136.256V137.525V137.948V139.641H200.76V140.064V141.757H209.177V150.22H199.076Z" fill="#273C89"></path><path d="M218.436 163.337V164.184H190.237V163.337H218.015V154.028H218.436V158.683V159.106V160.798V161.222V162.914V163.337Z" fill="#273C89"></path><path d="M235.692 151.912V156.567V156.99V158.683V159.106V160.798V161.222V161.645L236.113 162.068V162.914H223.487V162.068L225.591 159.952V132.447L223.487 130.331V129.485H240.743C242.426 129.485 243.689 129.908 245.373 130.331C246.635 131.178 247.898 132.024 248.74 132.87C250.423 134.14 251.265 135.832 252.107 137.525V137.948C252.107 138.371 252.107 138.371 252.527 138.794C252.527 139.218 252.527 139.218 252.527 139.641V140.064C252.527 140.487 252.527 140.487 252.527 140.487V140.91C252.527 140.91 252.527 140.91 252.527 141.333C252.527 141.333 252.527 141.333 252.527 141.757V142.18C252.527 142.603 252.527 142.603 252.527 143.026C252.527 143.449 252.527 143.449 252.527 143.872V144.295C252.527 144.719 252.527 144.719 252.107 145.142C252.107 145.565 252.107 145.565 251.686 145.988V146.411C251.265 147.257 250.844 147.681 250.844 148.104L250.423 148.527L250.002 148.95L249.581 149.373L250.002 150.22V150.643L250.423 152.335V152.758L250.844 154.451V154.874L251.265 156.567V156.99L251.686 158.683V159.106L252.107 160.798V161.222V161.645L252.527 162.068L252.948 162.914H240.322L239.901 162.068L241.164 159.952L238.638 151.912H235.692ZM237.376 162.914L237.797 163.761V164.607H225.17V163.761H236.955L237.376 162.914ZM256.315 162.914L256.736 163.761V164.607H244.11V163.761H255.895L256.315 162.914ZM234.009 137.525V141.757H234.851V138.371H242.006C242.426 138.371 242.847 138.371 243.268 138.371C243.268 137.948 242.847 137.948 242.426 137.525C242.006 137.525 241.585 137.102 241.164 137.102H234.009V137.525ZM234.009 159.952L234.851 160.798V151.066H240.322L239.901 150.22H233.588V159.952H234.009ZM235.692 139.218V141.757H241.164C242.426 141.757 243.268 140.91 243.268 139.218H235.692ZM252.948 160.798L249.16 148.95C250.423 147.681 251.265 146.411 252.107 145.142C252.527 143.872 252.948 142.18 252.948 140.91C252.948 139.641 252.527 138.371 252.107 137.525C251.686 136.679 250.844 135.409 250.002 134.563C251.265 136.256 252.107 138.371 252.107 140.487C252.107 142.18 251.686 143.872 251.265 145.142C250.423 146.411 249.581 147.681 248.319 148.527L252.107 160.375L252.948 160.798Z" fill="#273C89"></path><path d="M275.255 151.912V156.567V156.99V158.683V159.106V160.798V161.222V161.645L275.676 162.068V162.914H263.049V162.068L265.154 159.952V132.447L263.049 130.331V129.485H280.305C281.989 129.485 283.252 129.908 284.935 130.331C286.198 131.178 287.46 132.024 288.302 132.87C289.986 134.14 290.827 135.832 291.669 137.525V137.948C291.669 138.371 291.669 138.371 292.09 138.794C292.09 139.218 292.09 139.218 292.09 139.641V140.064C292.09 140.487 292.09 140.487 292.09 140.487V140.91C292.09 140.91 292.09 140.91 292.09 141.333C292.09 141.333 292.09 141.333 292.09 141.757V142.18C292.09 142.603 292.09 142.603 292.09 143.026C292.09 143.449 292.09 143.449 292.09 143.872V144.295C292.09 144.719 292.09 144.719 291.669 145.142C291.669 145.565 291.669 145.565 291.248 145.988V146.411C290.827 147.257 290.406 147.681 290.406 148.104V148.527L289.986 148.95L289.565 149.373L289.986 150.22V150.643L290.406 152.335V152.758L290.827 154.451V154.874L291.248 156.567V156.99L291.669 158.683V159.106L292.09 160.798V161.222V161.645L292.511 162.068L292.932 162.914H280.305L279.884 162.068L281.147 159.952L278.622 151.912H275.255ZM276.938 162.914L277.359 163.761V164.607H264.733V163.761H276.517L276.938 162.914ZM295.457 162.914L295.878 163.761V164.607H283.252V163.761H295.036L295.457 162.914ZM273.571 137.948V142.18H274.413V138.794H281.568C281.989 138.794 282.41 138.794 282.831 138.794C282.831 138.371 282.41 138.371 281.989 137.948C281.568 137.948 281.147 137.525 280.726 137.525H273.571V137.948ZM273.571 159.952L274.413 160.798V151.066H279.884L279.464 150.22H273.571V159.952ZM275.255 139.641V142.18H280.726C281.989 142.18 282.831 141.333 282.831 139.641H275.255ZM292.09 160.798L288.302 148.95C289.565 147.681 290.406 146.411 291.248 145.142C291.669 143.872 292.09 142.18 292.09 140.91C292.09 139.641 291.669 138.371 291.248 137.525C290.827 136.256 289.986 135.409 289.144 134.563C290.406 136.256 291.248 138.371 291.248 140.487C291.248 142.18 290.827 143.872 290.406 145.142C289.565 146.411 288.723 147.681 287.46 148.527L291.248 160.375L292.09 160.798Z" fill="#273C89"></path><path d="M323.235 161.222L323.656 162.068V162.914H311.03V162.068L313.134 159.952V153.605L302.191 132.447L299.245 130.331L298.824 129.485H311.451L311.871 130.331L311.03 132.447L317.764 145.565L318.185 144.719L312.292 133.293L313.134 131.178H313.976L314.397 132.024L313.555 133.717V134.14L314.397 135.832V136.256L315.239 137.948V138.371L316.08 140.064L316.501 140.487L317.343 142.18L318.606 143.872L324.498 132.447L323.656 130.331L324.077 129.485H336.703L336.282 130.331L333.336 132.447L322.393 153.605V159.952L323.235 160.798V153.605L333.757 133.293L337.124 131.178H337.966L336.703 132.024L334.178 133.717L333.757 134.14L332.495 135.832V136.256L331.653 137.948L331.232 138.371L330.39 139.641L329.969 140.064L329.127 141.757L328.707 142.18L328.286 143.872V144.295L327.444 145.988L327.023 146.411L326.181 148.104L325.76 148.527L324.919 150.22L324.498 150.643L324.077 152.335L323.656 152.758L323.235 153.605V154.451V154.874V156.567V156.99V158.683V159.106V161.222Z" fill="#273C89"></path><path d="M349.33 129.485L347.646 137.948H342.596L340.912 129.485H349.33ZM349.33 137.948V139.218H344.279V138.371H348.909L350.171 130.755H351.013L350.171 135.409V135.832L349.33 137.948Z" fill="#273C89"></path><path d="M367.428 164.607C366.586 164.607 365.323 164.607 364.481 164.184C363.64 163.76 362.377 163.76 361.535 163.337C360.694 162.914 359.852 162.491 359.01 161.645C358.168 161.222 357.747 160.375 356.906 159.529C356.064 159.106 355.643 158.259 355.222 157.836L359.01 151.489C359.431 151.912 360.273 152.759 361.535 153.182C362.798 153.605 364.482 154.028 366.165 154.028C368.269 154.028 369.532 154.028 370.374 153.605C371.216 153.182 371.636 152.758 371.636 152.335V151.912C371.216 151.912 370.795 151.489 369.953 151.489C369.532 151.489 368.69 151.489 368.269 151.489C367.428 151.489 366.165 151.489 365.323 151.066C364.061 151.066 363.219 150.643 362.377 150.22H361.956C361.114 149.796 360.694 149.373 360.273 148.95C359.852 148.527 359.431 148.104 359.01 147.257C358.168 146.411 357.327 145.565 356.485 144.295C356.064 143.026 355.643 141.756 355.643 140.064C355.643 138.371 356.064 137.102 356.906 135.832C357.747 134.563 358.589 133.293 360.273 132.447C361.535 131.601 362.798 130.755 364.481 130.331C366.165 129.908 367.428 129.485 368.69 129.485C369.953 129.485 370.795 129.485 371.636 129.485C372.478 129.485 373.32 129.485 374.162 129.908C375.003 129.908 375.424 130.331 376.266 130.755C376.687 131.178 377.529 131.601 377.95 132.024L380.054 131.601L380.475 132.024L374.583 139.218C374.162 138.371 373.32 137.948 372.478 137.948C371.636 137.948 370.374 137.525 369.532 137.525C367.428 137.525 366.165 137.948 365.323 138.371C364.482 138.794 364.061 139.218 364.061 140.064C364.061 140.91 364.061 141.333 364.902 141.757C364.902 141.757 364.902 141.333 364.902 140.91C364.902 140.487 364.902 140.064 365.323 139.641C365.744 139.218 366.165 139.218 366.586 138.794C367.007 138.794 367.849 138.371 368.269 138.371C368.69 138.371 369.532 138.371 369.953 138.371C370.795 138.371 372.057 138.371 372.899 138.794C374.162 139.218 375.003 139.641 375.003 140.064L380.475 133.293H380.896L381.317 133.717L379.633 135.832L379.212 136.256L378.791 137.525L378.371 137.948L377.108 139.641L376.687 140.064L375.424 141.333L374.583 140.064C374.162 139.641 373.741 139.218 372.899 139.218C372.057 139.218 371.216 138.794 370.374 138.794C369.532 138.794 368.69 138.794 367.849 138.794C367.007 138.794 365.744 139.218 365.744 139.641C365.744 140.064 365.744 140.487 365.744 140.91V141.333H366.586C367.849 141.333 369.532 141.333 370.795 141.757C371.636 141.757 372.899 142.18 373.741 142.603C374.583 143.026 375.003 143.026 375.845 143.449C377.108 144.295 378.371 145.142 379.212 145.988C379.633 146.411 380.054 146.834 380.896 147.681C381.317 148.104 381.738 148.95 382.158 149.796V150.22C382.158 150.643 382.579 151.066 382.579 151.912V152.335C382.579 152.758 382.579 153.605 382.579 154.028V154.451C382.579 154.874 382.579 154.874 382.579 155.297C382.579 155.721 382.579 155.721 382.579 156.144V156.567C382.579 156.99 382.158 156.99 382.158 157.413C382.158 157.836 381.738 157.836 381.738 158.26L381.317 158.683C381.317 159.106 380.896 159.529 380.475 159.529C380.054 159.952 380.054 159.952 379.633 160.375L378.791 161.222C377.95 162.068 377.108 162.491 376.266 162.914L375.424 163.337C372.899 164.607 370.795 165.03 368.269 165.03H367.428V164.607ZM367.007 163.337C366.165 163.337 365.744 163.337 364.902 163.337C364.061 163.337 363.219 162.914 362.377 162.914C361.535 162.491 360.694 162.491 359.852 162.068C359.01 161.645 358.168 161.222 357.747 160.798C359.01 162.068 360.273 162.914 362.377 163.337C364.061 163.76 365.744 164.184 367.428 164.184C368.69 164.184 370.374 163.76 372.057 163.337C373.741 162.914 375.003 162.068 376.687 161.222C377.95 160.375 379.212 159.106 380.054 157.836C380.896 156.567 381.317 155.297 381.317 153.605C381.317 152.335 380.896 151.066 380.475 149.796C380.054 148.527 379.212 147.681 378.791 146.834C379.212 147.681 379.633 148.527 380.054 149.373C380.475 150.22 380.475 151.489 380.475 152.335C380.475 153.605 380.054 154.874 379.633 156.144C378.791 157.413 377.95 158.683 376.687 159.529C375.424 160.375 374.162 161.222 372.478 161.645C370.795 162.914 368.69 163.337 367.007 163.337ZM368.269 151.066C369.111 151.066 369.532 151.066 370.374 151.066C371.216 151.066 371.636 151.489 372.057 151.489C371.636 151.066 371.216 150.643 370.374 150.22C369.532 149.796 368.69 149.796 367.849 149.796H367.007C365.744 149.796 364.061 149.796 362.798 149.373C361.535 148.95 360.273 148.527 359.01 147.681C359.852 148.527 360.273 148.95 361.114 149.373C361.956 149.796 362.798 150.22 363.64 150.22C364.482 150.643 365.323 150.643 366.165 150.643C367.007 151.066 367.849 151.066 368.269 151.066Z" fill="#273C89"></path><path d="M325.761 162.914L326.182 163.76V164.607H313.976V163.76H325.34V162.914H325.761Z" fill="#273C89"></path><defs><clipPath id="clip0_6_14745"><rect width="78" height="91" fill="white" transform="translate(153)"></rect></clipPath></defs></svg>