<svg width="25" height="22" viewBox="0 0 25 22" fill="none" xmlns="http://www.w3.org/2000/svg">
<path d="M17.6602 0C15.5977 0 13.6852 0.982143 12.4102 2.63214C11.1352 0.982143 9.22266 0 7.16016 0C3.44766 0 0.410156 3.18214 0.410156 7.07143C0.410156 14.4964 11.5477 21.6071 12.0352 21.8821C12.1477 21.9607 12.2977 22 12.4102 22C12.5227 22 12.6727 21.9607 12.7852 21.8821C13.2727 21.6071 24.4102 14.4964 24.4102 7.07143C24.4102 3.18214 21.3727 0 17.6602 0ZM12.4102 20.2714C10.4602 18.975 1.91016 12.8857 1.91016 7.07143C1.91016 4.04643 4.27266 1.57143 7.16016 1.57143C9.07266 1.57143 10.8352 2.67143 11.7727 4.4C12.0352 4.91071 12.8227 4.91071 13.0852 4.4C13.9852 2.67143 15.7477 1.57143 17.6602 1.57143C20.5477 1.57143 22.9102 4.04643 22.9102 7.07143C22.9102 12.8857 14.3602 18.975 12.4102 20.2714Z" fill="#273C89"></path>
</svg>