<svg xmlns="http://www.w3.org/2000/svg" width="48" height="46" viewBox="0 0 48 46" fill="none"><path d="M23.6428 2.04647C19.3775 2.03714 15.2053 3.29373 11.6546 5.65712C8.10389 8.02051 5.33435 11.3844 3.69668 15.3228C2.05902 19.2613 1.62689 23.5971 2.45501 27.7813C3.28313 31.9654 5.33425 35.8098 8.34865 38.8275C11.3631 41.8452 15.2051 43.9005 19.3884 44.7332C23.5717 45.5659 27.908 45.1386 31.8482 43.5052C35.7884 41.8719 39.1553 39.106 41.5226 35.5579C43.8899 32.0098 45.1511 27.839 45.1464 23.5736C45.1402 17.8703 42.8734 12.4019 38.8427 8.36684C34.812 4.33174 29.3462 2.05895 23.6428 2.04647ZM31.1644 31.1188C31.0562 31.2266 30.9273 31.3115 30.7855 31.3682C30.6437 31.4249 30.4918 31.4524 30.3391 31.4489C30.186 31.4552 30.0334 31.4291 29.8911 31.3722C29.7489 31.3153 29.6203 31.2289 29.5139 31.1188L22.8176 24.4225C22.7204 24.3181 22.6408 24.1986 22.5818 24.0688C22.5468 23.9375 22.5468 23.7993 22.5818 23.6679V12.0673C22.5818 11.7547 22.706 11.4548 22.9271 11.2337C23.1482 11.0126 23.448 10.8884 23.7607 10.8884C24.0734 10.8884 24.3732 11.0126 24.5943 11.2337C24.8154 11.4548 24.9396 11.7547 24.9396 12.0673V23.1021L31.2823 29.4447C31.3854 29.5619 31.4642 29.6984 31.5142 29.8463C31.5642 29.9942 31.5842 30.1506 31.5733 30.3064C31.5623 30.4621 31.5205 30.6141 31.4503 30.7536C31.3801 30.893 31.2829 31.0172 31.1644 31.1188Z" fill="#273C89"></path><path d="M12.136 0.348724C12.0264 0.238225 11.896 0.15052 11.7523 0.0906677C11.6086 0.0308153 11.4546 0 11.2989 0C11.1433 0 10.9892 0.0308153 10.8455 0.0906677C10.7019 0.15052 10.5715 0.238225 10.4619 0.348724L0.346712 10.346C0.236791 10.4559 0.149596 10.5864 0.0901076 10.73C0.0306186 10.8737 0 11.0276 0 11.183C0 11.497 0.124716 11.7981 0.346712 12.0201C0.568708 12.2421 0.869799 12.3668 1.18375 12.3668C1.4977 12.3668 1.79879 12.2421 2.02079 12.0201L12.136 2.0228C12.2465 1.9132 12.3342 1.78281 12.394 1.63915C12.4539 1.49548 12.4847 1.34139 12.4847 1.18576C12.4847 1.03013 12.4539 0.876037 12.394 0.732374C12.3342 0.588711 12.2465 0.45832 12.136 0.348724Z" fill="#273C89"></path><path d="M37.4348 0.348436C37.3249 0.238515 37.1944 0.151321 37.0508 0.0918321C36.9072 0.0323432 36.7533 0.00172424 36.5978 0.00172424C36.4424 0.00172424 36.2884 0.0323432 36.1448 0.0918321C36.0012 0.151321 35.8707 0.238515 35.7608 0.348436C35.6509 0.458357 35.5637 0.588853 35.5042 0.732472C35.4447 0.876091 35.4141 1.03002 35.4141 1.18547C35.4141 1.34092 35.4447 1.49485 35.5042 1.63847C35.5637 1.78209 35.6509 1.91259 35.7608 2.02251L45.7581 12.0198C45.868 12.1344 45.9994 12.2261 46.1448 12.2899C46.2902 12.3537 46.4467 12.3882 46.6055 12.3915C46.7642 12.3948 46.922 12.3668 47.0699 12.3091C47.2178 12.2514 47.3529 12.1651 47.4675 12.0552C47.5821 11.9452 47.6739 11.8138 47.7376 11.6684C47.8014 11.523 47.8359 11.3665 47.8392 11.2078C47.8425 11.049 47.8145 10.8912 47.7568 10.7433C47.6991 10.5954 47.6128 10.4603 47.5029 10.3457L37.4348 0.348436Z" fill="#273C89"></path></svg>